<svg width="240" height="135" viewBox="0 0 240 135" fill="none" xmlns="http://www.w3.org/2000/svg">
<rect width="240" height="135" fill="#FFE247"/>
<path d="M136.97 66.0963C137.839 67.233 137.839 68.7675 136.97 69.9023C134.232 73.4755 127.665 80.8327 119.998 80.8327C112.331 80.8327 105.764 73.4755 103.027 69.9023C102.605 69.3581 102.375 68.6885 102.375 67.9993C102.375 67.3102 102.605 66.6406 103.027 66.0963C105.764 62.5232 112.331 55.166 119.998 55.166C127.665 55.166 134.232 62.5232 136.97 66.0963V66.0963Z" stroke="#78350F" stroke-width="3" stroke-linecap="round" stroke-linejoin="round"/>
<path d="M120 73.5C123.038 73.5 125.5 71.0376 125.5 68C125.5 64.9624 123.038 62.5 120 62.5C116.962 62.5 114.5 64.9624 114.5 68C114.5 71.0376 116.962 73.5 120 73.5Z" stroke="#78350F" stroke-width="3" stroke-linecap="round" stroke-linejoin="round"/>
<circle cx="120.5" cy="67.5" r="39" stroke="#78350F" stroke-width="3"/>
</svg>
