<svg width="240" height="135" viewBox="0 0 240 135" fill="none" xmlns="http://www.w3.org/2000/svg">
<g clip-path="url(#clip0_1033_42)">
<rect width="240" height="135" fill="#214CE5"/>
<rect x="68.5" y="24.5" width="84" height="87" stroke="white" stroke-width="3"/>
<path d="M85.096 60.264C88.792 60.264 91.792 58.08 92.584 54.84H90.736C89.992 57.144 87.832 58.608 85.12 58.608C81.352 58.608 78.832 55.728 78.832 51.408C78.832 47.064 81.352 44.184 85.12 44.184C87.808 44.184 89.92 45.696 90.64 48.168H92.488C91.792 44.76 88.888 42.528 85.192 42.528C80.344 42.528 77.032 46.128 77.032 51.408C77.032 56.688 80.296 60.264 85.096 60.264ZM94.5404 47.28C94.5404 49.632 95.9564 51.168 98.6444 51.816L101.548 52.536C103.396 52.968 104.26 53.976 104.26 55.512C104.26 57.48 102.652 58.704 100.132 58.704C97.7804 58.704 96.1964 57.528 96.1004 55.728H94.3244C94.5404 58.536 96.7964 60.288 100.132 60.288C103.684 60.288 105.988 58.392 105.988 55.416C105.988 53.088 104.596 51.552 101.908 50.904L98.9564 50.184C97.1564 49.728 96.2684 48.768 96.2684 47.256C96.2684 45.312 97.8524 44.064 100.276 44.064C102.436 44.064 103.756 45.168 103.948 47.112H105.7C105.436 44.232 103.396 42.504 100.3 42.504C96.8444 42.504 94.5404 44.4 94.5404 47.28ZM108.111 47.28C108.111 49.632 109.527 51.168 112.215 51.816L115.119 52.536C116.967 52.968 117.831 53.976 117.831 55.512C117.831 57.48 116.223 58.704 113.703 58.704C111.351 58.704 109.767 57.528 109.671 55.728H107.895C108.111 58.536 110.367 60.288 113.703 60.288C117.255 60.288 119.559 58.392 119.559 55.416C119.559 53.088 118.167 51.552 115.479 50.904L112.527 50.184C110.727 49.728 109.839 48.768 109.839 47.256C109.839 45.312 111.423 44.064 113.847 44.064C116.007 44.064 117.327 45.168 117.519 47.112H119.271C119.007 44.232 116.967 42.504 113.871 42.504C110.415 42.504 108.111 44.4 108.111 47.28ZM131.05 42.816H129.322V60H131.05V42.816ZM134.197 47.28C134.197 49.632 135.613 51.168 138.301 51.816L141.205 52.536C143.053 52.968 143.917 53.976 143.917 55.512C143.917 57.48 142.309 58.704 139.789 58.704C137.437 58.704 135.853 57.528 135.757 55.728H133.981C134.197 58.536 136.453 60.288 139.789 60.288C143.341 60.288 145.645 58.392 145.645 55.416C145.645 53.088 144.253 51.552 141.565 50.904L138.613 50.184C136.813 49.728 135.925 48.768 135.925 47.256C135.925 45.312 137.509 44.064 139.933 44.064C142.093 44.064 143.413 45.168 143.605 47.112H145.357C145.093 44.232 143.053 42.504 139.957 42.504C136.501 42.504 134.197 44.4 134.197 47.28ZM78.088 92L79.768 87.44H87.688L89.368 92H91.168L84.784 74.816H82.648L76.336 92H78.088ZM83.488 77.24C83.584 77 83.68 76.688 83.704 76.544C83.728 76.712 83.848 77 83.92 77.24L87.136 85.928H80.296L83.488 77.24ZM95.2767 92H96.9327L101.541 77.408L106.149 92H107.781L112.941 74.816H111.189L107.637 86.648C107.445 87.296 107.229 88.136 106.965 89.456C106.701 88.352 106.461 87.488 106.197 86.624L102.453 74.816H100.653L96.9087 86.624C96.6447 87.464 96.4047 88.208 96.1167 89.456C95.9007 88.328 95.6847 87.464 95.4447 86.624L91.9647 74.816H90.1647L95.2767 92ZM125.673 92V90.416H117.105V84.152H124.857V82.592H117.105V76.4H125.649V74.816H115.377V92H125.673ZM128.15 79.28C128.15 81.632 129.566 83.168 132.254 83.816L135.158 84.536C137.006 84.968 137.87 85.976 137.87 87.512C137.87 89.48 136.262 90.704 133.742 90.704C131.39 90.704 129.806 89.528 129.71 87.728H127.934C128.15 90.536 130.406 92.288 133.742 92.288C137.294 92.288 139.598 90.392 139.598 87.416C139.598 85.088 138.206 83.552 135.518 82.904L132.566 82.184C130.766 81.728 129.878 80.768 129.878 79.256C129.878 77.312 131.462 76.064 133.886 76.064C136.046 76.064 137.366 77.168 137.558 79.112H139.31C139.046 76.232 137.006 74.504 133.91 74.504C130.454 74.504 128.15 76.4 128.15 79.28ZM158.017 83.408C158.017 78.176 154.657 74.504 149.833 74.504C145.033 74.504 141.649 78.2 141.649 83.408C141.649 88.616 145.009 92.288 149.833 92.288C154.633 92.288 158.017 88.616 158.017 83.408ZM156.241 83.408C156.241 87.68 153.625 90.632 149.833 90.632C146.041 90.632 143.449 87.704 143.449 83.408C143.449 79.112 146.041 76.184 149.833 76.184C153.625 76.184 156.241 79.112 156.241 83.408ZM162.855 92V83.576C162.855 80.96 162.807 79.064 162.711 78.416L168.303 92H169.959L175.551 78.344C175.455 79.52 175.407 80.84 175.407 83.84V92H177.111V74.816H175.383L169.119 89.96L162.855 74.816H161.151V92H162.855ZM191.579 92V90.416H183.011V84.152H190.763V82.592H183.011V76.4H191.555V74.816H181.283V92H191.579Z" fill="white"/>
</g>
<defs>
<clipPath id="clip0_1033_42">
<rect width="240" height="135" fill="white"/>
</clipPath>
</defs>
</svg>
