<svg width="240" height="135" viewBox="0 0 240 135" fill="none" xmlns="http://www.w3.org/2000/svg">
<g clip-path="url(#clip0_1028_127)">
<rect width="240" height="135" fill="#34D399"/>
<ellipse cx="186.5" cy="82" rx="52.5" ry="53" fill="#064E3B"/>
<path d="M238.5 19C238.5 29.2299 230.429 37.5 220.5 37.5C210.571 37.5 202.5 29.2299 202.5 19C202.5 8.77008 210.571 0.5 220.5 0.5C230.429 0.5 238.5 8.77008 238.5 19Z" stroke="#064E3B"/>
<path d="M201.5 15C201.5 22.4395 195.249 28.5 187.5 28.5C179.751 28.5 173.5 22.4395 173.5 15C173.5 7.56055 179.751 1.5 187.5 1.5C195.249 1.5 201.5 7.56055 201.5 15Z" stroke="#064E3B"/>
<circle cx="186" cy="82" r="31" fill="#34D399"/>
<g clip-path="url(#clip1_1028_127)">
<path d="M192.971 73.5931L178.144 77.5659C177.829 77.6505 177.643 77.9736 177.727 78.289L180.783 89.6944C180.868 90.0098 181.191 90.1964 181.506 90.1119L196.333 86.139C196.649 86.0545 196.835 85.7313 196.751 85.4159L193.695 74.0105C193.61 73.6951 193.287 73.5085 192.971 73.5931ZM192.788 75.7586L195.276 85.0469L181.875 88.6377L179.386 79.3495L178.792 79.0981L179.251 78.0105L180.173 78.3996L191.633 75.3287L192.237 74.5309L193.179 75.2432L192.788 75.7586ZM191.633 75.3269L187.096 81.3178L180.171 78.3983L179.249 78.0092L178.79 79.0968L179.384 79.3482L186.74 82.4503C186.952 82.5394 187.187 82.5555 187.408 82.4961C187.63 82.4367 187.826 82.3051 187.964 82.1222L192.788 75.7586L193.177 75.2437L192.235 74.5314L191.633 75.3269Z" fill="#064E3B"/>
</g>
<g clip-path="url(#clip2_1028_127)">
<path d="M191.403 14.582C191.088 14.5483 190.776 14.4679 190.473 14.3384C190.866 14.3322 191.243 14.1833 191.535 13.9193C191.166 13.9239 190.799 13.8652 190.451 13.7458C190.37 13.3992 190.177 13.089 189.902 12.8634C189.627 12.6377 189.285 12.5092 188.929 12.4978C188.573 12.4864 188.224 12.5928 187.935 12.8003C187.646 13.0079 187.433 13.3051 187.33 13.6458C186.79 13.2968 186.33 12.8381 185.978 12.2995C185.627 11.7609 185.393 11.1545 185.291 10.5195C185.051 10.6574 184.844 10.8577 184.696 11.1135C184.563 11.3438 184.489 11.6033 184.48 11.8691C184.471 12.1349 184.528 12.3987 184.646 12.6372C184.428 12.5019 184.245 12.3164 184.113 12.0963L184.103 12.1144C183.916 12.4373 183.847 12.8149 183.908 13.183C183.968 13.5511 184.153 13.887 184.433 14.1338C184.195 14.0706 183.974 13.9541 183.787 13.7931C183.716 14.1226 183.75 14.4661 183.884 14.7755C184.018 15.0849 184.245 15.3447 184.534 15.5186C183.813 15.6215 183.08 15.4792 182.45 15.1146C182.339 15.0502 182.231 14.9793 182.128 14.9023C182.53 15.6826 183.148 16.3305 183.909 16.7685C186.482 18.2542 189.119 16.9351 190.187 15.0867C190.221 15.0266 190.255 14.9651 190.287 14.9035C190.675 14.8636 191.052 14.7549 191.402 14.5825L191.403 14.582V14.582Z" fill="#064E3B"/>
</g>
<g clip-path="url(#clip3_1028_127)">
<path fill-rule="evenodd" clip-rule="evenodd" d="M217.648 14.3555C215.08 15.6569 214.054 18.7907 215.355 21.3584C216.398 23.415 218.608 24.4777 220.768 24.1572C221.021 24.0801 221.037 23.8965 220.976 23.7745C220.92 23.6641 220.728 23.3011 220.531 22.9119C219.472 23.7186 218.917 23.3721 218.692 23.1578C218.572 23.0507 218.136 22.7531 217.882 22.7428C217.676 22.7381 217.334 22.6409 217.721 22.4378C218.084 22.2465 218.519 22.4568 218.677 22.5521C219.451 23.043 220.019 22.5069 220.225 22.2494C220.112 21.9267 220.131 21.6616 220.206 21.4777C219.113 21.8856 217.829 22.0324 216.928 20.2547C216.672 19.7493 216.64 19.2397 216.771 18.7643C216.666 18.6716 216.262 18.2777 216.194 17.5091C216.194 17.5091 216.521 17.1898 217.713 17.3377C218.032 17.0447 218.401 16.7922 218.796 16.592C219.191 16.3918 219.612 16.2439 220.037 16.16C220.62 15.1053 221.074 15.0359 221.074 15.0359C221.653 15.5454 221.732 16.1042 221.744 16.2439C222.205 16.4191 222.595 16.7403 222.854 17.2515C223.758 19.035 222.871 19.9806 221.896 20.6209C222.138 20.6807 222.425 20.886 222.646 21.3217C222.961 21.9433 223.208 22.4458 223.288 22.6027C223.35 22.7247 223.51 22.8258 223.719 22.6615C224.484 21.8824 224.985 20.8831 225.152 19.8043C225.319 18.7255 225.144 17.6214 224.65 16.6475C223.349 14.0798 220.215 13.0541 217.648 14.3555Z" fill="#064E3B"/>
</g>
<line x1="2.18557e-08" y1="37.75" x2="266" y2="37.75" stroke="#064E3B" stroke-width="0.5"/>
<line x1="2.18557e-08" y1="28.75" x2="266" y2="28.75" stroke="#064E3B" stroke-width="0.5"/>
<line x1="134.25" y1="-14" x2="134.25" y2="172" stroke="#064E3B" stroke-width="0.5"/>
<line x1="202.25" y1="-14" x2="202.25" y2="146" stroke="#064E3B" stroke-width="0.5"/>
<line x1="4.37114e-08" y1="0.5" x2="266" y2="0.500023" stroke="#064E3B"/>
</g>
<defs>
<clipPath id="clip0_1028_127">
<rect width="240" height="135" fill="white"/>
</clipPath>
<clipPath id="clip1_1028_127">
<rect width="18.8923" height="18.8923" fill="white" transform="translate(175.668 75.1719) rotate(-15)"/>
</clipPath>
<clipPath id="clip2_1028_127">
<rect width="8.3212" height="8.3212" fill="white" transform="translate(185.16 9) rotate(30)"/>
</clipPath>
<clipPath id="clip3_1028_127">
<rect width="10.4207" height="10.4207" fill="white" transform="translate(213 16.7109) rotate(-26.8769)"/>
</clipPath>
</defs>
</svg>
