<svg width="103" height="27" viewBox="0 0 103 27" fill="none" xmlns="http://www.w3.org/2000/svg">
<path d="M0.204 0.907999H1.644L10.392 16.388L19.104 0.907999H20.436V25.964H0.204V0.907999ZM1.536 24.668H19.104V3.608L11.004 17.864H9.744L1.536 3.392V24.668ZM28.1124 25.964V0.907999H29.5164L47.0124 17.936V0.907999H48.3444V25.964H28.1124ZM65.5969 26.648C62.1169 26.648 59.4289 25.832 57.5329 24.2C55.6609 22.544 54.7369 20.072 54.7609 16.784H60.6289C60.6049 18.152 61.0129 19.196 61.8529 19.916C62.6929 20.636 63.8689 20.996 65.3809 20.996C66.6289 20.996 67.6129 20.792 68.3329 20.384C69.0529 19.976 69.4129 19.352 69.4129 18.512C69.4129 17.816 69.0409 17.312 68.2969 17C67.5769 16.688 66.8569 16.472 66.1369 16.352C65.4169 16.208 64.9729 16.124 64.8049 16.1C62.9569 15.74 61.3609 15.308 60.0169 14.804C58.6729 14.276 57.5449 13.484 56.6329 12.428C55.7209 11.372 55.2649 9.98 55.2649 8.252C55.2649 6.524 55.7209 5.06 56.6329 3.86C57.5449 2.636 58.7569 1.724 60.2689 1.124C61.8049 0.523999 63.4729 0.223999 65.2729 0.223999C67.4569 0.223999 69.3409 0.631999 70.9249 1.448C72.5329 2.264 73.7929 3.5 74.7049 5.156C75.1609 5.948 75.4369 6.716 75.5329 7.46C75.6289 8.18 75.6769 8.888 75.6769 9.584H69.8089C69.8089 8.288 69.4609 7.34 68.7649 6.74C68.0689 6.116 66.9889 5.804 65.5249 5.804C64.3489 5.804 63.4369 6.008 62.7889 6.416C62.1409 6.824 61.8169 7.376 61.8169 8.072C61.8169 8.84 62.2489 9.404 63.1129 9.764C63.9769 10.124 65.0689 10.448 66.3889 10.736C68.5489 11.168 70.2289 11.588 71.4289 11.996C72.6529 12.38 73.7089 13.076 74.5969 14.084C75.4849 15.092 75.9289 16.508 75.9289 18.332C75.9289 20.06 75.4489 21.548 74.4889 22.796C73.5289 24.044 72.2569 25.004 70.6729 25.676C69.1129 26.324 67.4209 26.648 65.5969 26.648ZM83.3173 26V0.943999H84.6493V12.788H101.281V0.943999H102.613V26H101.281V14.12H84.6493V26H83.3173Z" fill="#F43F5E"/>
</svg>
