<svg width="50" height="59" viewBox="0 0 50 59" fill="none" xmlns="http://www.w3.org/2000/svg">
<path d="M1.204 0.907999H2.644L11.392 16.388L20.104 0.907999H21.436V25.964H1.204V0.907999ZM2.536 24.668H20.104V3.608L12.004 17.864H10.744L2.536 3.392V24.668ZM29.1124 25.964V0.907999H30.5164L48.0124 17.936V0.907999H49.3444V25.964H29.1124ZM11.5 58.648C8.02 58.648 5.332 57.832 3.436 56.2C1.564 54.544 0.64 52.072 0.664 48.784H6.532C6.508 50.152 6.916 51.196 7.756 51.916C8.596 52.636 9.772 52.996 11.284 52.996C12.532 52.996 13.516 52.792 14.236 52.384C14.956 51.976 15.316 51.352 15.316 50.512C15.316 49.816 14.944 49.312 14.2 49C13.48 48.688 12.76 48.472 12.04 48.352C11.32 48.208 10.876 48.124 10.708 48.1C8.86 47.74 7.264 47.308 5.92 46.804C4.576 46.276 3.448 45.484 2.536 44.428C1.624 43.372 1.168 41.98 1.168 40.252C1.168 38.524 1.624 37.06 2.536 35.86C3.448 34.636 4.66 33.724 6.172 33.124C7.708 32.524 9.376 32.224 11.176 32.224C13.36 32.224 15.244 32.632 16.828 33.448C18.436 34.264 19.696 35.5 20.608 37.156C21.064 37.948 21.34 38.716 21.436 39.46C21.532 40.18 21.58 40.888 21.58 41.584H15.712C15.712 40.288 15.364 39.34 14.668 38.74C13.972 38.116 12.892 37.804 11.428 37.804C10.252 37.804 9.34 38.008 8.692 38.416C8.044 38.824 7.72 39.376 7.72 40.072C7.72 40.84 8.152 41.404 9.016 41.764C9.88 42.124 10.972 42.448 12.292 42.736C14.452 43.168 16.132 43.588 17.332 43.996C18.556 44.38 19.612 45.076 20.5 46.084C21.388 47.092 21.832 48.508 21.832 50.332C21.832 52.06 21.352 53.548 20.392 54.796C19.432 56.044 18.16 57.004 16.576 57.676C15.016 58.324 13.324 58.648 11.5 58.648ZM29.2204 58V32.944H30.5524V44.788H47.1844V32.944H48.5164V58H47.1844V46.12H30.5524V58H29.2204Z" fill="#F43F5E"/>
</svg>
