<svg width="325" height="307" viewBox="0 0 325 307" fill="none" xmlns="http://www.w3.org/2000/svg">
<rect x="0.699219" y="0.755859" width="323.484" height="305.288" fill="#FB7185"/>
<path d="M197.084 147.612C199.315 150.531 199.315 154.472 197.084 157.387C190.054 166.563 173.189 185.458 153.499 185.458C133.808 185.458 116.943 166.563 109.914 157.387C108.828 155.989 108.238 154.269 108.238 152.499C108.238 150.729 108.828 149.01 109.914 147.612C116.943 138.436 133.808 119.541 153.499 119.541C173.189 119.541 190.054 138.436 197.084 147.612V147.612Z" stroke="#881337" stroke-width="6" stroke-linecap="round" stroke-linejoin="round"/>
<path d="M153.5 166.625C161.301 166.625 167.625 160.301 167.625 152.5C167.625 144.699 161.301 138.375 153.5 138.375C145.699 138.375 139.375 144.699 139.375 152.5C139.375 160.301 145.699 166.625 153.5 166.625Z" stroke="#881337" stroke-width="6" stroke-linecap="round" stroke-linejoin="round"/>
<circle cx="153.5" cy="152.5" r="82.5" stroke="#881337" stroke-width="6"/>
</svg>
